<svg id="Layer_1" data-name="Layer 1" xmlns="http://www.w3.org/2000/svg" xmlns:xlink="http://www.w3.org/1999/xlink" viewBox="0 0 141.73 131.67"><defs><style>.cls-1,.cls-2,.cls-3{fill-rule:evenodd;}.cls-1{fill:url(#linear-gradient);}.cls-2,.cls-5{fill:#0a5e33;}.cls-3{fill:#95c11f;}.cls-4{fill:none;stroke:#1d1d1b;stroke-miterlimit:10;}</style><linearGradient id="linear-gradient" x1="137.41" y1="17.12" x2="31.31" y2="68.87" gradientUnits="userSpaceOnUse"><stop offset="0" stop-color="#95c11f"/><stop offset="1" stop-color="#0a5e33"/></linearGradient></defs><title>greensign_level4</title><path class="cls-1" d="M62.25,60.82C66.1,72.31,44.47,50.55,38.47,48.19c-6.79.06-21.07,0-31.71,0.06,27.2,19,48.11,43,54.3,28.44,14.35-33.76,33.12-52.43,56.65-62C88,29.93,71.63,63.67,66.78,80.15c12.31-1.94,27.37-5.76,42.32-23.44,18.73-21.19,19-35.32,39.39-46.59C102.41-11,51.13,26.11,62.25,60.82Z" transform="translate(-6.76 -3.95)"/><path class="cls-2" d="M23.76,98H20.84v6.12a6.48,6.48,0,0,1-3.48,1.15c-2.23,0-3-1.46-3-5.9,0-5.39,1.1-6,4.25-6,1.13,0,2.81,0,4.37.14l0.24-2.23a17.89,17.89,0,0,0-4.75-.55c-5.35,0-7.24,1.9-7.24,8.51,0,6,1.51,8.66,5.18,8.66a7.12,7.12,0,0,0,4.84-1.94l0.26,1.63h2.23V98h0Zm16.69,9.55L39,102.36a3,3,0,0,0-2.21-2.45V99.8c2.28-.29,3.09-1.7,3.09-4.17,0-3.77-1.68-4.85-5.76-4.85a52.65,52.65,0,0,0-6,.22v16.55h3V100.9l3,0a1.79,1.79,0,0,1,1.92,1.49l1.32,5.13h3.19Zm-9.4-9.09V93.25h3c2.11,0,2.78.53,2.78,2.57S36.14,98.43,34,98.45h-3Zm23.72,6.67H48.3c-0.86,0-1.2-.36-1.2-1.39V100h6.79v-2.3H47.1v-2.9c0-1,.34-1.39,1.2-1.39h6.48l0.14-2.3c-2.18-.19-4.87-0.19-7.29-0.19-2.16,0-3.53,1.2-3.55,3.14v10.36c0,1.94,1.37,3.14,3.55,3.14,2.42,0,5.11,0,7.29-.19l-0.14-2.28h0Zm14.68,0H63c-0.86,0-1.2-.36-1.2-1.39V100h6.79v-2.3H61.78v-2.9c0-1,.34-1.39,1.2-1.39h6.48l0.14-2.3c-2.18-.19-4.87-0.19-7.29-0.19-2.16,0-3.53,1.2-3.55,3.14v10.36c0,1.94,1.37,3.14,3.55,3.14,2.42,0,5.11,0,7.29-.19l-0.14-2.28h0ZM87,91H84.11v10.7c0,0.89,0,1.78.12,2.69H83.94c-0.36-.89-0.84-1.9-1.15-2.62L78.28,91.9A1.25,1.25,0,0,0,77,91H74.71a1,1,0,0,0-1.13,1.1v15.45h3v-11A17.85,17.85,0,0,0,76.39,94h0.29a14.08,14.08,0,0,0,1,2.47l4.65,10.14a1.22,1.22,0,0,0,1.25.91h2.37a1,1,0,0,0,1.1-1.1V91Z" transform="translate(-6.76 -3.95)"/><path class="cls-3" d="M97.76,101c1.2,0.38,1.75.67,1.75,2.18,0,1.7-.6,2-2.76,2-1.15,0-2.11,0-5.25-.1l-0.19,2.21a27.59,27.59,0,0,0,5.37.53c4.25,0,5.88-.86,5.88-4.63,0-2.42-.79-4-3.41-4.82L96,97.4c-1.3-.41-1.85-0.74-1.85-2.2,0-1.78.74-1.89,2.76-1.89,1.63,0,3.55,0,4.92.1L102,91.26a21.17,21.17,0,0,0-5.2-.55c-4,0-5.68.65-5.68,4.44,0,2.47.89,4,3.34,4.8L97.76,101h0Zm11.75,6.55V91h-3v16.55h3ZM126.23,98H123.3v6.12a6.47,6.47,0,0,1-3.48,1.15c-2.23,0-3-1.46-3-5.9,0-5.39,1.1-6,4.25-6,1.13,0,2.81,0,4.37.14l0.24-2.23a17.89,17.89,0,0,0-4.75-.55c-5.35,0-7.24,1.9-7.24,8.51,0,6,1.51,8.66,5.18,8.66a7.12,7.12,0,0,0,4.85-1.94l0.26,1.63h2.23V98h0ZM144,91h-2.93v10.7c0,0.89,0,1.78.12,2.69h-0.29c-0.36-.89-0.84-1.9-1.15-2.62l-4.51-9.86A1.25,1.25,0,0,0,134,91h-2.33a1,1,0,0,0-1.13,1.1v15.45h2.95v-11a17.57,17.57,0,0,0-.14-2.49h0.29a14.14,14.14,0,0,0,1,2.47l4.65,10.14a1.22,1.22,0,0,0,1.25.91h2.37a1,1,0,0,0,1.1-1.1V91Z" transform="translate(-6.76 -3.95)"/><line class="cls-4" x1="4.49" y1="111.33" x2="137.25" y2="111.33"/><path class="cls-5" d="M49.51,123.7v9.12a1,1,0,0,0,.22.77,1.14,1.14,0,0,0,.79.21h4.14l0.09,1.67q-1.69.16-4.72,0.16-2.67,0-2.67-2.46V123.7h2.15Z" transform="translate(-6.76 -3.95)"/><path class="cls-5" d="M64,133.85l0.1,1.64q-1.57.14-5.24,0.14A2.7,2.7,0,0,1,57,135a2.15,2.15,0,0,1-.7-1.65v-7.45a2.15,2.15,0,0,1,.7-1.66,2.7,2.7,0,0,1,1.85-.6q3.67,0,5.24.14L64,125.46H59.3a0.85,0.85,0,0,0-.66.22,1.18,1.18,0,0,0-.2.78v2.09h4.88v1.66H58.44v2.65a1.18,1.18,0,0,0,.2.78,0.84,0.84,0,0,0,.66.22H64Z" transform="translate(-6.76 -3.95)"/><path class="cls-5" d="M75.36,123.7L72,135a0.75,0.75,0,0,1-.79.6h-2a0.79,0.79,0,0,1-.49-0.16A0.76,0.76,0,0,1,68.4,135L65,123.7h2.22l2.43,8.93c0,0.14.09,0.36,0.16,0.66L70,134h0.43c0.07-.37.18-0.81,0.33-1.33l2.4-8.93h2.22Z" transform="translate(-6.76 -3.95)"/><path class="cls-5" d="M84.47,133.85l0.1,1.64q-1.57.14-5.24,0.14a2.69,2.69,0,0,1-1.85-.6,2.14,2.14,0,0,1-.7-1.65v-7.45a2.15,2.15,0,0,1,.7-1.66,2.69,2.69,0,0,1,1.85-.6q3.67,0,5.24.14l-0.1,1.66H79.81a0.85,0.85,0,0,0-.66.22,1.18,1.18,0,0,0-.2.78v2.09h4.88v1.66H79v2.65a1.18,1.18,0,0,0,.2.78,0.84,0.84,0,0,0,.66.22h4.65Z" transform="translate(-6.76 -3.95)"/><path class="cls-5" d="M88.79,123.7v9.12a1,1,0,0,0,.22.77,1.14,1.14,0,0,0,.79.21h4.14L94,135.47q-1.69.16-4.72,0.16-2.67,0-2.67-2.46V123.7h2.15Z" transform="translate(-6.76 -3.95)"/><path class="cls-5" d="M107.89,131.23v1.45l-1.5.22h0v2.69h-2V132.9H99.65a1.29,1.29,0,0,1-1.18-.64,1.42,1.42,0,0,1-.08-1.36l3.17-7.21h2.09l-3,6.91c-0.18.41-.06,0.62,0.38,0.62h3.31v-3.31l0.36-1.93h1.67v5.24h1.53Z" transform="translate(-6.76 -3.95)"/></svg>